<svg xmlns="http://www.w3.org/2000/svg" viewBox="0 0 300 300" width="300" height="300" preserveAspectRatio="xMidYMid meet" style="width: 100%; height: 100%; transform: translate3d(0px, 0px, 0px);">
    <defs>
        <clipPath id="__lottie_element_20234">
            <rect width="300" height="300" x="0" y="0"></rect>
        </clipPath>
        <clipPath id="__lottie_element_20236">
            <path d="M0,0 L200,0 L200,200 L0,200z"></path>
        </clipPath>
        <clipPath id="__lottie_element_20240">
            <path d="M0,0 L200,0 L200,200 L0,200z"></path>
        </clipPath>
        <clipPath id="__lottie_element_20244">
            <path d="M0,0 L600,0 L600,600 L0,600z"></path>
        </clipPath>
        <clipPath id="__lottie_element_20251">
            <path d="M0,0 L600,0 L600,600 L0,600z"></path>
        </clipPath>
        <filter id="__lottie_element_20255" filterUnits="objectBoundingBox" x="0%" y="0%" width="100%" height="100%">
            <feComponentTransfer in="SourceGraphic">
                <feFuncA type="table" tableValues="1.0 0.0"></feFuncA>
            </feComponentTransfer>
        </filter>
        <mask id="__lottie_element_20254" mask-type="alpha">
            <g filter="url(#__lottie_element_20255)">
                <rect width="600" height="600" x="0" y="0" fill="#ffffff" opacity="0"></rect>
                <g transform="matrix(-0.9986295104026794,-0.0523359552025795,0.0523359552025795,-0.9986295104026794,292.0872497558594,282.1277160644531)" opacity="1" style="display: block;">
                    <g opacity="1" transform="matrix(1,0,0,1,0.026000000536441803,0.49900001287460327)">
                        <path fill="rgb(0,0,0)" fill-opacity="1" d=" M-51.70000076293945,-73.8759994506836 C-51.70000076293945,-73.8759994506836 -93,-54.5 -93,-54.5 C-93,-54.5 -110,29.5 -111,33 C-112,36.5 116.73200225830078,93.90899658203125 116.73200225830078,93.90899658203125 C116.73200225830078,93.90899658203125 99.47699737548828,-34.79899978637695 99.47699737548828,-34.79899978637695 C99.47699737548828,-34.79899978637695 -7.5,-28.5 -7.5,-28.5 C-7.5,-28.5 -51.70000076293945,-73.8759994506836 -51.70000076293945,-73.8759994506836z"></path>
                        <path stroke-linecap="butt" stroke-linejoin="miter" fill-opacity="0" stroke-miterlimit="4" stroke="rgb(0,0,0)" stroke-opacity="1" stroke-width="0" d=" M-51.70000076293945,-73.8759994506836 C-51.70000076293945,-73.8759994506836 -93,-54.5 -93,-54.5 C-93,-54.5 -110,29.5 -111,33 C-112,36.5 116.73200225830078,93.90899658203125 116.73200225830078,93.90899658203125 C116.73200225830078,93.90899658203125 99.47699737548828,-34.79899978637695 99.47699737548828,-34.79899978637695 C99.47699737548828,-34.79899978637695 -7.5,-28.5 -7.5,-28.5 C-7.5,-28.5 -51.70000076293945,-73.8759994506836 -51.70000076293945,-73.8759994506836z"></path>
                    </g>
                </g>
            </g>
        </mask>
        <clipPath id="__lottie_element_20282">
            <path d="M0,0 L600,0 L600,600 L0,600z"></path>
        </clipPath>
        <clipPath id="__lottie_element_20299">
            <path d="M0,0 L600,0 L600,600 L0,600z"></path>
        </clipPath>
        <clipPath id="__lottie_element_20303">
            <path d="M0,0 L600,0 L600,600 L0,600z"></path>
        </clipPath>
        <filter id="__lottie_element_20307" filterUnits="objectBoundingBox" x="0%" y="0%" width="100%" height="100%">
            <feComponentTransfer in="SourceGraphic">
                <feFuncA type="table" tableValues="1.0 0.0"></feFuncA>
            </feComponentTransfer>
        </filter>
        <mask id="__lottie_element_20306" mask-type="alpha">
            <g filter="url(#__lottie_element_20307)">
                <rect width="600" height="600" x="0" y="0" fill="#ffffff" opacity="0"></rect>
                <g transform="matrix(0.6819983720779419,-0.7313537001609802,0.7313537001609802,0.6819983720779419,321.0462341308594,301.97247314453125)" opacity="1" style="display: block;">
                    <g opacity="1" transform="matrix(1,0,0,1,0,0)">
                        <path fill="rgb(0,0,0)" fill-opacity="1" d=" M-0.2930000126361847,-91.33999633789062 C-0.2930000126361847,-91.33999633789062 -93,-54.5 -93,-54.5 C-93,-54.5 -110,29.5 -111,33 C-112,36.5 -62.5,65.5 -62.5,65.5 C-62.5,65.5 93.40599822998047,65.11299896240234 93.40599822998047,65.11299896240234 C93.40599822998047,65.11299896240234 2.630000114440918,-26.277000427246094 2.630000114440918,-26.277000427246094 C2.630000114440918,-26.277000427246094 -0.2930000126361847,-91.33999633789062 -0.2930000126361847,-91.33999633789062z"></path>
                        <path stroke-linecap="butt" stroke-linejoin="miter" fill-opacity="0" stroke-miterlimit="4" stroke="rgb(0,0,0)" stroke-opacity="1" stroke-width="0" d=" M-0.2930000126361847,-91.33999633789062 C-0.2930000126361847,-91.33999633789062 -93,-54.5 -93,-54.5 C-93,-54.5 -110,29.5 -111,33 C-112,36.5 -62.5,65.5 -62.5,65.5 C-62.5,65.5 93.40599822998047,65.11299896240234 93.40599822998047,65.11299896240234 C93.40599822998047,65.11299896240234 2.630000114440918,-26.277000427246094 2.630000114440918,-26.277000427246094 C2.630000114440918,-26.277000427246094 -0.2930000126361847,-91.33999633789062 -0.2930000126361847,-91.33999633789062z"></path>
                    </g>
                </g>
            </g>
        </mask>
        <clipPath id="__lottie_element_20311">
            <path d="M0,0 L600,0 L600,600 L0,600z"></path>
        </clipPath>
        <clipPath id="__lottie_element_20315">
            <path d="M0,0 L600,0 L600,600 L0,600z"></path>
        </clipPath>
        <clipPath id="__lottie_element_20370">
            <path d="M0,0 L600,0 L600,600 L0,600z"></path>
        </clipPath>
        <clipPath id="__lottie_element_20410">
            <path d="M0,0 L600,0 L600,600 L0,600z"></path>
        </clipPath>
        <clipPath id="__lottie_element_20414">
            <path d="M0,0 L1920,0 L1920,1080 L0,1080z"></path>
        </clipPath>
    </defs>
    <g clip-path="url(#__lottie_element_20234)">
        <g clip-path="url(#__lottie_element_20236)" transform="matrix(2.0299999713897705,0,0,2.0299999713897705,-53,-53)" opacity="1" style="display: block;">
            <g clip-path="url(#__lottie_element_20240)" transform="matrix(0.9599999785423279,0,0,0.9599999785423279,4,4)" opacity="1" style="display: block;">
                <g transform="matrix(0.017452405765652657,-0.9998477101325989,-0.9998477101325989,-0.017452405765652657,100,100)" opacity="1" style="display: block;">
                    <g opacity="1" transform="matrix(1,0,0,1,-0.25,1)">
                        <path stroke-linecap="butt" stroke-linejoin="miter" fill-opacity="0" stroke-miterlimit="4" stroke="rgb(0,0,0)" stroke-opacity="1" stroke-width="1" d=" M0.125,-73.625 C-40.0880012512207,-73.625 -72.68800354003906,-41.0260009765625 -72.68800354003906,-0.8130000233650208 C-72.68800354003906,39.400001525878906 -40.0880012512207,72 0.125,72 C40.3380012512207,72 72.93800354003906,39.400001525878906 72.93800354003906,-0.8130000233650208 C72.93800354003906,-41.0260009765625 40.3380012512207,-73.625 0.125,-73.625z"></path>
                    </g>
                </g>
            </g>
            <g clip-path="url(#__lottie_element_20282)" transform="matrix(1,0,0,1,-200,-200.5)" opacity="1" style="display: block;">
                <g transform="matrix(1.0000004768371582,0,0,1.0000004768371582,329.3007507324219,292.134765625)" opacity="1" style="display: block;">
                    <g opacity="1" transform="matrix(1,0,0,1,6.699999809265137,7.85099983215332)">
                        <path fill="rgb(0,0,0)" fill-opacity="1" d=" M6.35099983215332,-0.20100000500679016 C6.451000213623047,3.6989998817443848 3.9509999752044678,7.60099983215332 -1.3489999771118164,7.60099983215332 C-1.3489999771118164,7.60099983215332 -6.451000213623047,7.60099983215332 -6.451000213623047,7.60099983215332 C-6.451000213623047,7.60099983215332 -6.451000213623047,-7.60099983215332 -6.451000213623047,-7.60099983215332 C-6.451000213623047,-7.60099983215332 -1.3489999771118164,-7.60099983215332 -1.3489999771118164,-7.60099983215332 C3.750999927520752,-7.60099983215332 6.250999927520752,-3.9010000228881836 6.35099983215332,-0.20100000500679016z M-5.348999977111816,-6.500999927520752 C-5.348999977111816,-6.500999927520752 -5.348999977111816,6.400000095367432 -5.348999977111816,6.400000095367432 C-5.348999977111816,6.400000095367432 -1.3489999771118164,6.400000095367432 -1.3489999771118164,6.400000095367432 C3.1510000228881836,6.400000095367432 5.250999927520752,2.999000072479248 5.151000022888184,-0.20100000500679016 C5.050000190734863,-3.4010000228881836 3.049999952316284,-6.500999927520752 -1.3489999771118164,-6.500999927520752 C-1.3489999771118164,-6.500999927520752 -5.348999977111816,-6.500999927520752 -5.348999977111816,-6.500999927520752z"></path>
                    </g>
                </g>
                <g transform="matrix(1.0000004768371582,0,0,1.0000004768371582,306.1113586425781,292.1365051269531)" opacity="1" style="display: block;">
                    <g opacity="1" transform="matrix(1,0,0,1,6.25,7.849999904632568)">
                        <path fill="rgb(0,0,0)" fill-opacity="1" d=" M6,7.590000152587891 C6,7.590000152587891 4.5,7.590000152587891 4.5,7.590000152587891 C4.5,7.590000152587891 -0.699999988079071,1.899999976158142 -0.699999988079071,1.899999976158142 C-0.699999988079071,1.899999976158142 -4.798999786376953,1.899999976158142 -4.798999786376953,1.899999976158142 C-4.798999786376953,1.899999976158142 -4.798999786376953,7.599999904632568 -4.798999786376953,7.599999904632568 C-4.798999786376953,7.599999904632568 -6,7.599999904632568 -6,7.599999904632568 C-6,7.599999904632568 -6,-7.599999904632568 -6,-7.599999904632568 C-6,-7.599999904632568 0.7009999752044678,-7.599999904632568 0.7009999752044678,-7.599999904632568 C4,-7.599999904632568 5.701000213623047,-5.199999809265137 5.701000213623047,-2.9000000953674316 C5.701000213623047,-0.4000000059604645 4.099999904632568,1.7000000476837158 0.800000011920929,1.7000000476837158 C0.800000011920929,1.7000000476837158 6,7.590000152587891 6,7.590000152587891z M-4.900000095367432,0.699999988079071 C-4.900000095367432,0.699999988079071 0.5,0.699999988079071 0.5,0.699999988079071 C3.0999999046325684,0.699999988079071 4.300000190734863,-0.800000011920929 4.300000190734863,-2.9000000953674316 C4.300000190734863,-4.699999809265137 3.0999999046325684,-6.5 0.6000000238418579,-6.5 C0.6000000238418579,-6.5 -4.900000095367432,-6.5 -4.900000095367432,-6.5 C-4.900000095367432,-6.5 -4.900000095367432,0.699999988079071 -4.900000095367432,0.699999988079071z"></path>
                    </g>
                </g>
                <g transform="matrix(0.9945587515830994,0,0,0.9945587515830994,283.17242431640625,292.1792297363281)" opacity="1" style="display: block;">
                    <g opacity="1" transform="matrix(1,0,0,1,5.650000095367432,7.849999904632568)">
                        <path fill="rgb(0,0,0)" fill-opacity="1" d=" M-4.199999809265137,-0.6000000238418579 C-4.199999809265137,-0.6000000238418579 4.699999809265137,-0.6000000238418579 4.699999809265137,-0.6000000238418579 C4.699999809265137,-0.6000000238418579 4.699999809265137,0.5 4.699999809265137,0.5 C4.699999809265137,0.5 -4.199999809265137,0.5 -4.199999809265137,0.5 C-4.199999809265137,0.5 -4.199999809265137,6.5 -4.199999809265137,6.5 C-4.199999809265137,6.5 5.400000095367432,6.5 5.400000095367432,6.5 C5.400000095367432,6.5 5.400000095367432,7.599999904632568 5.400000095367432,7.599999904632568 C5.400000095367432,7.599999904632568 -5.400000095367432,7.599999904632568 -5.400000095367432,7.599999904632568 C-5.400000095367432,7.599999904632568 -5.400000095367432,-7.599999904632568 -5.400000095367432,-7.599999904632568 C-5.400000095367432,-7.599999904632568 5.099999904632568,-7.599999904632568 5.099999904632568,-7.599999904632568 C5.099999904632568,-7.599999904632568 5.099999904632568,-6.5 5.099999904632568,-6.5 C5.099999904632568,-6.5 -4.199999809265137,-6.5 -4.199999809265137,-6.5 C-4.199999809265137,-6.5 -4.199999809265137,-0.6000000238418579 -4.199999809265137,-0.6000000238418579z"></path>
                    </g>
                </g>
                <g transform="matrix(0.9945587515830994,0,0,0.9945587515830994,259.211669921875,292.1792297363281)" opacity="1" style="display: block;">
                    <g opacity="1" transform="matrix(1,0,0,1,6.150000095367432,7.849999904632568)">
                        <path fill="rgb(0,0,0)" fill-opacity="1" d=" M-5.400000095367432,-7.599999904632568 C-5.400000095367432,-7.599999904632568 4.800000190734863,5 4.800000190734863,5 C4.800000190734863,5 4.800000190734863,-7.599999904632568 4.800000190734863,-7.599999904632568 C4.800000190734863,-7.599999904632568 5.900000095367432,-7.599999904632568 5.900000095367432,-7.599999904632568 C5.900000095367432,-7.599999904632568 5.900000095367432,7.599999904632568 5.900000095367432,7.599999904632568 C5.900000095367432,7.599999904632568 5.400000095367432,7.599999904632568 5.400000095367432,7.599999904632568 C5.400000095367432,7.599999904632568 -4.699999809265137,-4.900000095367432 -4.699999809265137,-4.900000095367432 C-4.699999809265137,-4.900000095367432 -4.699999809265137,7.599999904632568 -4.699999809265137,7.599999904632568 C-4.699999809265137,7.599999904632568 -5.900000095367432,7.599999904632568 -5.900000095367432,7.599999904632568 C-5.900000095367432,7.599999904632568 -5.900000095367432,-7.599999904632568 -5.900000095367432,-7.599999904632568 C-5.900000095367432,-7.599999904632568 -5.400000095367432,-7.599999904632568 -5.400000095367432,-7.599999904632568z"></path>
                    </g>
                </g>
            </g>
            <g clip-path="url(#__lottie_element_20244)" transform="matrix(1,0,0,1,-199.96299743652344,-200.010009765625)" opacity="1" style="display: block;">
                <g clip-path="url(#__lottie_element_20251)" transform="matrix(0.9800000190734863,0,0,0.9800000190734863,0.75,-3.25)" opacity="1" style="display: block;"></g>
                <g mask="url(#__lottie_element_20254)" style="display: block;">
                    <g clip-path="url(#__lottie_element_20299)" transform="matrix(0.9893969297409058,0.0345505028963089,-0.0345505028963089,0.9893969297409058,11.85906982421875,-6.934234619140625)" opacity="1">
                        <g clip-path="url(#__lottie_element_20315)" transform="matrix(1,0,0,1,0,0)" opacity="1" style="display: block;">
                            <g transform="matrix(1,0,0,1,244.0500030517578,322.95001220703125)" opacity="1" style="display: block;">
                                <g opacity="1" transform="matrix(1,0,0,1,5.199999809265137,4.048999786376953)">
                                    <path fill="rgb(0,0,0)" fill-opacity="1" d=" M2.3499999046325684,-3.7990000247955322 C2.3499999046325684,-3.7990000247955322 2.8499999046325684,-3.000999927520752 2.8499999046325684,-3.000999927520752 C2.8499999046325684,-3.000999927520752 1.9500000476837158,-2.4000000953674316 1.9500000476837158,-2.4000000953674316 C2.8499999046325684,-2.4000000953674316 3.6500000953674316,-1.899999976158142 4.150000095367432,-1.100000023841858 C4.949999809265137,0.4000000059604645 4.550000190734863,1.9989999532699585 3.049999952316284,2.9000000953674316 C1.4500000476837158,3.7990000247955322 -0.15000000596046448,3.4000000953674316 -1.0499999523162842,1.899999976158142 C-1.4500000476837158,1.2000000476837158 -1.649999976158142,0.20000000298023224 -1.149999976158142,-0.6000000238418579 C-1.149999976158142,-0.6000000238418579 -4.449999809265137,1.2990000247955322 -4.449999809265137,1.2990000247955322 C-4.449999809265137,1.2990000247955322 -4.949999809265137,0.49900001287460327 -4.949999809265137,0.49900001287460327 C-4.949999809265137,0.49900001287460327 2.3499999046325684,-3.7990000247955322 2.3499999046325684,-3.7990000247955322z M2.3499999046325684,2.0999999046325684 C3.450000047683716,1.399999976158142 3.75,0.29899999499320984 3.1500000953674316,-0.7009999752044678 C2.549999952316284,-1.7009999752044678 1.350000023841858,-2.000999927520752 0.3499999940395355,-1.399999976158142 C-0.6499999761581421,-0.800000011920929 -1.0499999523162842,0.4000000059604645 -0.44999998807907104,1.399999976158142 C0.15000000596046448,2.4000000953674316 1.25,2.700000047683716 2.3499999046325684,2.0999999046325684z"></path>
                                </g>
                            </g>
                            <g transform="matrix(1,0,0,1,329.79998779296875,243.6999969482422)" opacity="1" style="display: block;">
                                <g opacity="1" transform="matrix(1,0,0,1,4.699999809265137,4.050000190734863)">
                                    <path fill="rgb(0,0,0)" fill-opacity="1" d=" M4.449999809265137,-3.299999952316284 C4.449999809265137,-3.299999952316284 0.3499999940395355,3.799999952316284 0.3499999940395355,3.799999952316284 C0.3499999940395355,3.799999952316284 -0.44999998807907104,3.4000000953674316 -0.44999998807907104,3.4000000953674316 C-0.44999998807907104,3.4000000953674316 0.05000000074505806,2.5 0.05000000074505806,2.5 C-0.75,3 -1.649999976158142,2.9000000953674316 -2.450000047683716,2.4000000953674316 C-3.8499999046325684,1.600000023841858 -4.449999809265137,0 -3.549999952316284,-1.7000000476837158 C-2.549999952316284,-3.4000000953674316 -0.949999988079071,-3.700000047683716 0.44999998807907104,-2.9000000953674316 C1.149999976158142,-2.5 1.75,-1.7000000476837158 1.75,-0.800000011920929 C1.75,-0.800000011920929 3.450000047683716,-3.799999952316284 3.450000047683716,-3.799999952316284 C3.450000047683716,-3.799999952316284 4.449999809265137,-3.299999952316284 4.449999809265137,-3.299999952316284z M0.15000000596046448,-2 C-0.8500000238418579,-2.5999999046325684 -1.9500000476837158,-2.4000000953674316 -2.6500000953674316,-1.2000000476837158 C-3.3499999046325684,0 -2.8499999046325684,1.100000023841858 -1.9500000476837158,1.600000023841858 C-0.949999988079071,2.200000047683716 0.25,1.899999976158142 0.8500000238418579,0.800000011920929 C1.5499999523162842,-0.30000001192092896 1.149999976158142,-1.5 0.15000000596046448,-2z"></path>
                                </g>
                            </g>
                            <g transform="matrix(1,0,0,1,249.6580047607422,329.8639831542969)" opacity="1" style="display: block;">
                                <g opacity="1" transform="matrix(1,0,0,1,3.6500000953674316,2.3499999046325684)">
                                    <path fill="rgb(0,0,0)" fill-opacity="1" d=" M1.899999976158142,-1.2999999523162842 C1.899999976158142,-1.2999999523162842 1.2000000476837158,-0.699999988079071 1.2000000476837158,-0.699999988079071 C2,-0.800000011920929 2.5999999046325684,-0.4000000059604645 3,0.20000000298023224 C3.299999952316284,0.6000000238418579 3.4000000953674316,1.100000023841858 3.4000000953674316,1.600000023841858 C3.4000000953674316,1.600000023841858 2.5,1.7000000476837158 2.5,1.7000000476837158 C2.5,1.2999999523162842 2.4000000953674316,1 2.200000047683716,0.699999988079071 C1.7000000476837158,0 0.699999988079071,-0.30000001192092896 -0.20000000298023224,0.30000001192092896 C-0.20000000298023224,0.30000001192092896 -2.799999952316284,2.0999999046325684 -2.799999952316284,2.0999999046325684 C-2.799999952316284,2.0999999046325684 -3.4000000953674316,1.2999999523162842 -3.4000000953674316,1.2999999523162842 C-3.4000000953674316,1.2999999523162842 1.2999999523162842,-2.0999999046325684 1.2999999523162842,-2.0999999046325684 C1.2999999523162842,-2.0999999046325684 1.899999976158142,-1.2999999523162842 1.899999976158142,-1.2999999523162842z"></path>
                                </g>
                            </g>
                            <g transform="matrix(1,0,0,1,253.16900634765625,333.5069885253906)" opacity="1" style="display: block;">
                                <g opacity="1" transform="matrix(1,0,0,1,3.6500000953674316,3.700000047683716)">
                                    <path fill="rgb(0,0,0)" fill-opacity="1" d=" M2.200000047683716,-1.9509999752044678 C3.4000000953674316,-0.6499999761581421 3.200000047683716,1.149999976158142 1.899999976158142,2.3499999046325684 C0.6000000238418579,3.450000047683716 -1.2000000476837158,3.3499999046325684 -2.299999952316284,2.0490000247955322 C-3.4000000953674316,0.75 -3.299999952316284,-1.0499999523162842 -2,-2.1500000953674316 C-0.699999988079071,-3.4509999752044678 1.100000023841858,-3.25 2.200000047683716,-1.9509999752044678z M1.600000023841858,-1.350000023841858 C0.800000011920929,-2.25 -0.4000000059604645,-2.3489999771118164 -1.399999976158142,-1.5490000247955322 C-2.299999952316284,-0.7490000128746033 -2.4000000953674316,0.44999998807907104 -1.7000000476837158,1.350000023841858 C-0.8999999761581421,2.25 0.30000001192092896,2.3499999046325684 1.2000000476837158,1.5490000247955322 C2.299999952316284,0.75 2.299999952316284,-0.45100000500679016 1.600000023841858,-1.350000023841858z"></path>
                                </g>
                            </g>
                            <g transform="matrix(1,0,0,1,257.8609924316406,339.0350036621094)" opacity="1" style="display: block;">
                                <g opacity="1" transform="matrix(1,0,0,1,4.949999809265137,4.050000190734863)">
                                    <path fill="rgb(0,0,0)" fill-opacity="1" d=" M4.699999809265137,-2.2009999752044678 C4.699999809265137,-2.2009999752044678 -0.8999999761581421,3.7990000247955322 -0.8999999761581421,3.7990000247955322 C-0.8999999761581421,3.7990000247955322 -1.600000023841858,3.2009999752044678 -1.600000023841858,3.2009999752044678 C-1.600000023841858,3.2009999752044678 -0.8999999761581421,2.4000000953674316 -0.8999999761581421,2.4000000953674316 C-1.7999999523162842,2.7009999752044678 -2.700000047683716,2.3989999294281006 -3.299999952316284,1.7990000247955322 C-4.5,0.699999988079071 -4.699999809265137,-1 -3.4000000953674316,-2.4000000953674316 C-2.0999999046325684,-3.7990000247955322 -0.4000000059604645,-3.700000047683716 0.800000011920929,-2.5999999046325684 C1.399999976158142,-2 1.7999999523162842,-1.100000023841858 1.600000023841858,-0.29899999499320984 C1.600000023841858,-0.29899999499320984 4,-2.7990000247955322 4,-2.7990000247955322 C4,-2.7990000247955322 4.699999809265137,-2.2009999752044678 4.699999809265137,-2.2009999752044678z M0.30000001192092896,-1.899999976158142 C-0.5,-2.700000047683716 -1.7000000476837158,-2.7009999752044678 -2.5999999046325684,-1.7009999752044678 C-3.5,-0.7009999752044678 -3.4000000953674316,0.5 -2.5,1.2009999752044678 C-1.7000000476837158,2 -0.4000000059604645,1.9989999532699585 0.4000000059604645,0.9990000128746033 C1.2000000476837158,0.0989999994635582 1.100000023841858,-1.100000023841858 0.30000001192092896,-1.899999976158142z"></path>
                                </g>
                            </g>
                            <g transform="matrix(1,0,0,1,263.9839782714844,343.2619934082031)" opacity="1" style="display: block;">
                                <g opacity="1" transform="matrix(1,0,0,1,3.950000047683716,4.25)">
                                    <path fill="rgb(0,0,0)" fill-opacity="1" d=" M-0.5,3.5 C-0.5,3.5 0,2.700000047683716 0,2.700000047683716 C-0.800000011920929,3 -1.600000023841858,2.799999952316284 -2.200000047683716,2.299999952316284 C-3.4000000953674316,1.3990000486373901 -3.700000047683716,0 -2.700000047683716,-1.399999976158142 C-2.700000047683716,-1.399999976158142 -0.800000011920929,-4 -0.800000011920929,-4 C-0.800000011920929,-4 0,-3.4000000953674316 0,-3.4000000953674316 C0,-3.4000000953674316 -1.899999976158142,-0.800000011920929 -1.899999976158142,-0.800000011920929 C-2.5999999046325684,0.10000000149011612 -2.4000000953674316,1.100000023841858 -1.5,1.7000000476837158 C-0.6000000238418579,2.299999952316284 0.4000000059604645,2.0999999046325684 1.100000023841858,1.2000000476837158 C1.100000023841858,1.2000000476837158 2.9000000953674316,-1.2999999523162842 2.9000000953674316,-1.2999999523162842 C2.9000000953674316,-1.2999999523162842 3.700000047683716,-0.699999988079071 3.700000047683716,-0.699999988079071 C3.700000047683716,-0.699999988079071 0.30000001192092896,4 0.30000001192092896,4 C0.30000001192092896,4 -0.5,3.5 -0.5,3.5z"></path>
                                </g>
                            </g>
                            <g transform="matrix(1,0,0,1,269.9700012207031,347.8810119628906)" opacity="1" style="display: block;">
                                <g opacity="1" transform="matrix(1,0,0,1,3.450000047683716,3.5490000247955322)">
                                    <path fill="rgb(0,0,0)" fill-opacity="1" d=" M1.2000000476837158,3.0999999046325684 C0.4000000059604645,3.299999952316284 -0.4000000059604645,3.200000047683716 -1.100000023841858,2.7990000247955322 C-2.5,1.9989999532699585 -3.200000047683716,0.4009999930858612 -2.299999952316284,-1.2990000247955322 C-1.399999976158142,-3 0.30000001192092896,-3.2990000247955322 1.7999999523162842,-2.4000000953674316 C2.5,-2 3,-1.4010000228881836 3.200000047683716,-0.6000000238418579 C3.200000047683716,-0.6000000238418579 2.4000000953674316,-0.29899999499320984 2.4000000953674316,-0.29899999499320984 C2.200000047683716,-0.7990000247955322 1.899999976158142,-1.2999999523162842 1.399999976158142,-1.5010000467300415 C0.4000000059604645,-2.0999999046325684 -0.800000011920929,-1.7999999523162842 -1.399999976158142,-0.7009999752044678 C-2.0999999046325684,0.49900001287460327 -1.600000023841858,1.600000023841858 -0.6000000238418579,2.0999999046325684 C-0.10000000149011612,2.4010000228881836 0.5,2.499000072479248 1,2.2990000247955322 C1,2.2990000247955322 1.2000000476837158,3.0999999046325684 1.2000000476837158,3.0999999046325684z"></path>
                                </g>
                            </g>
                            <g transform="matrix(1,0,0,1,275.9490051269531,349.2760009765625)" opacity="1" style="display: block;">
                                <g opacity="1" transform="matrix(1,0,0,1,2.549999952316284,4.201000213623047)">
                                    <path fill="rgb(0,0,0)" fill-opacity="1" d=" M0.699999988079071,-1.850000023841858 C0.699999988079071,-1.850000023841858 2.299999952316284,-1.149999976158142 2.299999952316284,-1.149999976158142 C2.299999952316284,-1.149999976158142 2,-0.3499999940395355 2,-0.3499999940395355 C2,-0.3499999940395355 0.30000001192092896,-1.0490000247955322 0.30000001192092896,-1.0490000247955322 C0.30000001192092896,-1.0490000247955322 -0.8999999761581421,1.649999976158142 -0.8999999761581421,1.649999976158142 C-1.2000000476837158,2.25 -1.100000023841858,2.75 -0.5,3.0490000247955322 C-0.30000001192092896,3.1500000953674316 0,3.1500000953674316 0.30000001192092896,3.1500000953674316 C0.30000001192092896,3.1500000953674316 0.20000000298023224,3.9509999752044678 0.20000000298023224,3.9509999752044678 C-0.20000000298023224,3.9509999752044678 -0.6000000238418579,3.8499999046325684 -0.8999999761581421,3.750999927520752 C-2,3.250999927520752 -2.299999952316284,2.3489999771118164 -1.7999999523162842,1.149999976158142 C-1.7999999523162842,1.149999976158142 -0.6000000238418579,-1.649999976158142 -0.6000000238418579,-1.649999976158142 C-0.6000000238418579,-1.649999976158142 -1.7000000476837158,-2.1500000953674316 -1.7000000476837158,-2.1500000953674316 C-1.7000000476837158,-2.1500000953674316 -1.399999976158142,-2.9509999752044678 -1.399999976158142,-2.9509999752044678 C-1.399999976158142,-2.9509999752044678 -0.30000001192092896,-2.4509999752044678 -0.30000001192092896,-2.4509999752044678 C-0.30000001192092896,-2.4509999752044678 0.30000001192092896,-3.9509999752044678 0.30000001192092896,-3.9509999752044678 C0.30000001192092896,-3.9509999752044678 1.2000000476837158,-3.6500000953674316 1.2000000476837158,-3.6500000953674316 C1.2000000476837158,-3.6500000953674316 0.699999988079071,-1.850000023841858 0.699999988079071,-1.850000023841858z"></path>
                                </g>
                            </g>
                            <g transform="matrix(1,0,0,1,279.7200012207031,349.7380065917969)" opacity="1" style="display: block;">
                                <g opacity="1" transform="matrix(1,0,0,1,2.25,4.400000095367432)">
                                    <path fill="rgb(0,0,0)" fill-opacity="1" d=" M0,-1.649999976158142 C0,-1.649999976158142 0.8999999761581421,-1.350000023841858 0.8999999761581421,-1.350000023841858 C0.8999999761581421,-1.350000023841858 -1.100000023841858,4.150000095367432 -1.100000023841858,4.150000095367432 C-1.100000023841858,4.150000095367432 -2,3.8499999046325684 -2,3.8499999046325684 C-2,3.8499999046325684 0,-1.649999976158142 0,-1.649999976158142z M0.5,-3.3499999046325684 C0.20000000298023224,-2.549999952316284 1.399999976158142,-2.1500000953674316 1.7000000476837158,-2.950000047683716 C2,-3.749000072479248 0.800000011920929,-4.150000095367432 0.5,-3.3499999046325684z"></path>
                                </g>
                            </g>
                            <g transform="matrix(1,0,0,1,282.5140075683594,352.8570251464844)" opacity="1" style="display: block;">
                                <g opacity="1" transform="matrix(1,0,0,1,3.6500000953674316,3.549999952316284)">
                                    <path fill="rgb(0,0,0)" fill-opacity="1" d=" M0.800000011920929,-2.9000000953674316 C2.5,-2.4000000953674316 3.4000000953674316,-0.8989999890327454 2.9000000953674316,0.8009999990463257 C2.4000000953674316,2.500999927520752 0.8999999761581421,3.3010001182556152 -0.800000011920929,2.9000000953674316 C-2.5,2.4000000953674316 -3.4000000953674316,0.8989999890327454 -2.9000000953674316,-0.8009999990463257 C-2.5,-2.5 -0.8999999761581421,-3.3010001182556152 0.800000011920929,-2.9000000953674316z M0.5,-1.9989999532699585 C-0.6000000238418579,-2.299999952316284 -1.7000000476837158,-1.6990000009536743 -2.0999999046325684,-0.49900001287460327 C-2.4000000953674316,0.699999988079071 -1.7999999523162842,1.6990000009536743 -0.699999988079071,2.0999999046325684 C0.5,2.3989999294281006 1.5,1.7999999523162842 1.7999999523162842,0.6000000238418579 C2.299999952316284,-0.699999988079071 1.7000000476837158,-1.6990000009536743 0.5,-1.9989999532699585z"></path>
                                </g>
                            </g>
                            <g transform="matrix(1,0,0,1,289.2740173339844,354.34698486328125)" opacity="1" style="display: block;">
                                <g opacity="1" transform="matrix(1,0,0,1,3.299999952316284,3.5)">
                                    <path fill="rgb(0,0,0)" fill-opacity="1" d=" M-2.25,-3.25 C-2.25,-3.25 -1.350000023841858,-3.1500000953674316 -1.350000023841858,-3.1500000953674316 C-1.350000023841858,-3.1500000953674316 -1.4500000476837158,-2.25 -1.4500000476837158,-2.25 C-0.8500000238418579,-2.8510000705718994 -0.15000000596046448,-3.049999952316284 0.6499999761581421,-2.950000047683716 C2.1500000953674316,-2.75 3.049999952316284,-1.649999976158142 2.75,0.05000000074505806 C2.75,0.05000000074505806 2.25,3.25 2.25,3.25 C2.25,3.25 1.25,3.1489999294281006 1.25,3.1489999294281006 C1.25,3.1489999294281006 1.75,-0.05000000074505806 1.75,-0.05000000074505806 C1.9500000476837158,-1.149999976158142 1.350000023841858,-1.9500000476837158 0.25,-2.049999952316284 C-0.75,-2.1500000953674316 -1.649999976158142,-1.4500000476837158 -1.75,-0.44999998807907104 C-1.75,-0.44999998807907104 -2.1500000953674316,2.6489999294281006 -2.1500000953674316,2.6489999294281006 C-2.1500000953674316,2.6489999294281006 -3.049999952316284,2.549999952316284 -3.049999952316284,2.549999952316284 C-3.049999952316284,2.549999952316284 -2.25,-3.25 -2.25,-3.25z"></path>
                                </g>
                            </g>
                            <g transform="matrix(1,0,0,1,301.4930114746094,355.09600830078125)" opacity="1" style="display: block;">
                                <g opacity="1" transform="matrix(1,0,0,1,2.75,3.2990000247955322)">
                                    <path fill="rgb(0,0,0)" fill-opacity="1" d=" M1.5,-1.649999976158142 C1,-2.049999952316284 0.5,-2.1500000953674316 -0.10000000149011612,-2.1500000953674316 C-0.8999999761581421,-2.1500000953674316 -1.5,-1.850000023841858 -1.5,-1.2510000467300415 C-1.5,-0.6499999761581421 -0.800000011920929,-0.45100000500679016 0,-0.45100000500679016 C1.100000023841858,-0.3499999940395355 2.5,-0.15000000596046448 2.5,1.2489999532699585 C2.5,2.450000047683716 1.399999976158142,3.0490000247955322 0.10000000149011612,3.0490000247955322 C-0.8999999761581421,3.0490000247955322 -1.7999999523162842,2.8499999046325684 -2.5,2.0490000247955322 C-2.5,2.0490000247955322 -2,1.350000023841858 -2,1.350000023841858 C-1.5,1.9500000476837158 -0.6000000238418579,2.249000072479248 0.10000000149011612,2.1500000953674316 C0.699999988079071,2.1500000953674316 1.5,1.9500000476837158 1.5,1.2489999532699585 C1.5,0.6499999761581421 0.800000011920929,0.44999998807907104 -0.10000000149011612,0.3499999940395355 C-1.2000000476837158,0.24899999797344208 -2.4000000953674316,-0.05000000074505806 -2.5,-1.2510000467300415 C-2.5,-2.4509999752044678 -1.2999999523162842,-2.950000047683716 -0.20000000298023224,-3.0490000247955322 C0.699999988079071,-3.0490000247955322 1.399999976158142,-2.8499999046325684 2,-2.3499999046325684 C2,-2.3499999046325684 1.5,-1.649999976158142 1.5,-1.649999976158142z"></path>
                                </g>
                            </g>
                            <g transform="matrix(1,0,0,1,306.9739990234375,353.6280212402344)" opacity="1" style="display: block;">
                                <g opacity="1" transform="matrix(1,0,0,1,2.5999999046325684,4.048999786376953)">
                                    <path fill="rgb(0,0,0)" fill-opacity="1" d=" M-0.25,-2.0999999046325684 C-0.25,-2.0999999046325684 1.5499999523162842,-2.2990000247955322 1.5499999523162842,-2.2990000247955322 C1.5499999523162842,-2.2990000247955322 1.649999976158142,-1.4989999532699585 1.649999976158142,-1.4989999532699585 C1.649999976158142,-1.4989999532699585 -0.15000000596046448,-1.2990000247955322 -0.15000000596046448,-1.2990000247955322 C-0.15000000596046448,-1.2990000247955322 0.15000000596046448,1.7009999752044678 0.15000000596046448,1.7009999752044678 C0.25,2.4010000228881836 0.44999998807907104,2.799999952316284 1.149999976158142,2.7009999752044678 C1.4500000476837158,2.7009999752044678 1.649999976158142,2.5999999046325684 1.9500000476837158,2.4000000953674316 C1.9500000476837158,2.4000000953674316 2.3499999046325684,3.2009999752044678 2.3499999046325684,3.2009999752044678 C1.9500000476837158,3.4010000228881836 1.649999976158142,3.5999999046325684 1.25,3.5999999046325684 C0.05000000074505806,3.7990000247955322 -0.6499999761581421,3.0999999046325684 -0.75,1.7990000247955322 C-0.75,1.7990000247955322 -1.0499999523162842,-1.2009999752044678 -1.0499999523162842,-1.2009999752044678 C-1.0499999523162842,-1.2009999752044678 -2.25,-1.100000023841858 -2.25,-1.100000023841858 C-2.25,-1.100000023841858 -2.3499999046325684,-1.899999976158142 -2.3499999046325684,-1.899999976158142 C-2.3499999046325684,-1.899999976158142 -1.149999976158142,-1.9989999532699585 -1.149999976158142,-1.9989999532699585 C-1.149999976158142,-1.9989999532699585 -1.350000023841858,-3.5999999046325684 -1.350000023841858,-3.5999999046325684 C-1.350000023841858,-3.5999999046325684 -0.44999998807907104,-3.7990000247955322 -0.44999998807907104,-3.7990000247955322 C-0.44999998807907104,-3.7990000247955322 -0.25,-2.0999999046325684 -0.25,-2.0999999046325684z"></path>
                                </g>
                            </g>
                            <g transform="matrix(1,0,0,1,311.6819763183594,353.4940185546875)" opacity="1" style="display: block;">
                                <g opacity="1" transform="matrix(1,0,0,1,3.549999952316284,3.5510001182556152)">
                                    <path fill="rgb(0,0,0)" fill-opacity="1" d=" M2.4000000953674316,2.499000072479248 C2.4000000953674316,2.499000072479248 2.200000047683716,1.600000023841858 2.200000047683716,1.600000023841858 C1.7999999523162842,2.3989999294281006 1.2000000476837158,2.799999952316284 0.4000000059604645,2.999000072479248 C-1,3.299999952316284 -2.299999952316284,2.5 -2.5999999046325684,0.8999999761581421 C-2.5999999046325684,0.8999999761581421 -3.299999952316284,-2.1989998817443848 -3.299999952316284,-2.1989998817443848 C-3.299999952316284,-2.1989998817443848 -2.4000000953674316,-2.4000000953674316 -2.4000000953674316,-2.4000000953674316 C-2.4000000953674316,-2.4000000953674316 -1.7000000476837158,0.6990000009536743 -1.7000000476837158,0.6990000009536743 C-1.5,1.7999999523162842 -0.699999988079071,2.299999952316284 0.4000000059604645,2.0999999046325684 C1.399999976158142,1.8990000486373901 2,0.8999999761581421 1.7999999523162842,-0.10000000149011612 C1.7999999523162842,-0.10000000149011612 1.2000000476837158,-3.0999999046325684 1.2000000476837158,-3.0999999046325684 C1.2000000476837158,-3.0999999046325684 2.0999999046325684,-3.3010001182556152 2.0999999046325684,-3.3010001182556152 C2.0999999046325684,-3.3010001182556152 3.299999952316284,2.4000000953674316 3.299999952316284,2.4000000953674316 C3.299999952316284,2.4000000953674316 2.4000000953674316,2.499000072479248 2.4000000953674316,2.499000072479248z"></path>
                                </g>
                            </g>
                            <g transform="matrix(1,0,0,1,318.4750061035156,349.17401123046875)" opacity="1" style="display: block;">
                                <g opacity="1" transform="matrix(1,0,0,1,3.9000000953674316,4.949999809265137)">
                                    <path fill="rgb(0,0,0)" fill-opacity="1" d=" M1.0499999523162842,-4.699999809265137 C1.0499999523162842,-4.699999809265137 3.6500000953674316,3.0999999046325684 3.6500000953674316,3.0999999046325684 C3.6500000953674316,3.0999999046325684 2.75,3.4000000953674316 2.75,3.4000000953674316 C2.75,3.4000000953674316 2.3499999046325684,2.4000000953674316 2.3499999046325684,2.4000000953674316 C2.1500000953674316,3.299999952316284 1.4500000476837158,3.9000000953674316 0.6499999761581421,4.199999809265137 C-0.949999988079071,4.699999809265137 -2.450000047683716,4.099999904632568 -3.049999952316284,2.299999952316284 C-3.6500000953674316,0.4000000059604645 -2.75,-0.9990000128746033 -1.25,-1.4989999532699585 C-0.44999998807907104,-1.7999999523162842 0.550000011920929,-1.7000000476837158 1.149999976158142,-1.100000023841858 C1.149999976158142,-1.100000023841858 0.05000000074505806,-4.400000095367432 0.05000000074505806,-4.400000095367432 C0.05000000074505806,-4.400000095367432 1.0499999523162842,-4.699999809265137 1.0499999523162842,-4.699999809265137z M-0.8500000238418579,-0.6000000238418579 C-1.9500000476837158,-0.20000000298023224 -2.549999952316284,0.699999988079071 -2.1500000953674316,2.000999927520752 C-1.75,3.299999952316284 -0.6499999761581421,3.700000047683716 0.44999998807907104,3.4000000953674316 C1.5499999523162842,3.000999927520752 2.1500000953674316,2.000999927520752 1.75,0.800000011920929 C1.350000023841858,-0.49900001287460327 0.25,-0.9990000128746033 -0.8500000238418579,-0.6000000238418579z"></path>
                                </g>
                            </g>
                            <g transform="matrix(1,0,0,1,324.6409912109375,347.42901611328125)" opacity="1" style="display: block;">
                                <g opacity="1" transform="matrix(1,0,0,1,2.3499999046325684,4.400000095367432)">
                                    <path fill="rgb(0,0,0)" fill-opacity="1" d=" M-0.6000000238418579,-3.3499999046325684 C-0.30000001192092896,-2.549999952316284 -1.5,-2.049999952316284 -1.7999999523162842,-2.8499999046325684 C-2.0999999046325684,-3.6500000953674316 -0.8999999761581421,-4.150000095367432 -0.6000000238418579,-3.3499999046325684z M1.2000000476837158,4.150000095367432 C1.2000000476837158,4.150000095367432 2.0999999046325684,3.750999927520752 2.0999999046325684,3.750999927520752 C2.0999999046325684,3.750999927520752 -0.10000000149011612,-1.649999976158142 -0.10000000149011612,-1.649999976158142 C-0.10000000149011612,-1.649999976158142 -1,-1.2489999532699585 -1,-1.2489999532699585 C-1,-1.2489999532699585 1.2000000476837158,4.150000095367432 1.2000000476837158,4.150000095367432z"></path>
                                </g>
                            </g>
                            <g transform="matrix(1,0,0,1,328.5669860839844,346.9739990234375)" opacity="1" style="display: block;">
                                <g opacity="1" transform="matrix(1,0,0,1,3.700000047683716,3.75)">
                                    <path fill="rgb(0,0,0)" fill-opacity="1" d=" M-1.350000023841858,-2.700000047683716 C0.25,-3.5 1.9500000476837158,-2.8989999294281006 2.6500000953674316,-1.2990000247955322 C3.450000047683716,0.30000001192092896 2.8499999046325684,1.9010000228881836 1.25,2.7009999752044678 C-0.3499999940395355,3.5 -1.9500000476837158,2.9010000228881836 -2.75,1.2999999523162842 C-3.450000047683716,-0.20000000298023224 -2.8499999046325684,-1.8990000486373901 -1.350000023841858,-2.700000047683716z M-0.949999988079071,-1.8990000486373901 C-2.049999952316284,-1.3990000486373901 -2.450000047683716,-0.20000000298023224 -1.850000023841858,0.9010000228881836 C-1.350000023841858,2 -0.15000000596046448,2.4010000228881836 0.949999988079071,1.9010000228881836 C2.049999952316284,1.4010000228881836 2.450000047683716,0.20100000500679016 1.850000023841858,-0.8989999890327454 C1.350000023841858,-2 0.15000000596046448,-2.3989999294281006 -0.949999988079071,-1.8990000486373901z"></path>
                                </g>
                            </g>
                        </g>
                    </g>
                </g>
                <g mask="url(#__lottie_element_20306)" style="display: block;">
                    <g clip-path="url(#__lottie_element_20303)" transform="matrix(0.988643229007721,0.05181259661912918,-0.05181259661912918,0.988643229007721,18.0137939453125,-8.386749267578125)" opacity="1">
                        <g clip-path="url(#__lottie_element_20370)" transform="matrix(1,0,0,1,0,0)" opacity="1" style="display: block;">
                            <g transform="matrix(1,0,0,1,267.489990234375,242.2259979248047)" opacity="1" style="display: block;">
                                <g opacity="1" transform="matrix(1,0,0,1,0,0)"></g>
                                <g opacity="1" transform="matrix(1,0,0,1,3.450000047683716,3.5)">
                                    <path fill="rgb(0,0,0)" fill-opacity="1" d=" M3.200000047683716,0.8500000238418579 C2.9000000953674316,1.649999976158142 2.4000000953674316,2.25 1.600000023841858,2.549999952316284 C0.10000000149011612,3.25 -1.600000023841858,2.950000047683716 -2.4000000953674316,1.149999976158142 C-3.200000047683716,-0.550000011920929 -2.5,-2.1500000953674316 -1,-2.8499999046325684 C-0.30000001192092896,-3.1500000953674316 0.5,-3.25 1.2999999523162842,-2.950000047683716 C1.2999999523162842,-2.950000047683716 1,-2.1500000953674316 1,-2.1500000953674316 C0.5,-2.3499999046325684 -0.10000000149011612,-2.25 -0.6000000238418579,-2.049999952316284 C-1.600000023841858,-1.5499999523162842 -2.0999999046325684,-0.44999998807907104 -1.600000023841858,0.75 C-1,1.9500000476837158 0.20000000298023224,2.25 1.2000000476837158,1.75 C1.7000000476837158,1.5499999523162842 2.0999999046325684,1.149999976158142 2.299999952316284,0.550000011920929 C2.299999952316284,0.550000011920929 3.200000047683716,0.8500000238418579 3.200000047683716,0.8500000238418579z"></path>
                                </g>
                            </g>
                            <g transform="matrix(1,0,0,1,274.2980041503906,239.76300048828125)" opacity="1" style="display: block;">
                                <g opacity="1" transform="matrix(1,0,0,1,2.25,3.549999952316284)">
                                    <path fill="rgb(0,0,0)" fill-opacity="1" d=" M-1.100000023841858,-2.4000000953674316 C-1.100000023841858,-2.4000000953674316 -0.699999988079071,-1.600000023841858 -0.699999988079071,-1.600000023841858 C-0.6000000238418579,-2.4000000953674316 0,-2.9000000953674316 0.6000000238418579,-3.0999999046325684 C1.100000023841858,-3.299999952316284 1.600000023841858,-3.299999952316284 2,-3.200000047683716 C2,-3.200000047683716 1.899999976158142,-2.299999952316284 1.899999976158142,-2.299999952316284 C1.5,-2.4000000953674316 1.2000000476837158,-2.4000000953674316 0.800000011920929,-2.200000047683716 C-0.10000000149011612,-1.899999976158142 -0.6000000238418579,-1 -0.20000000298023224,0 C-0.20000000298023224,0 1,3 1,3 C1,3 0.10000000149011612,3.299999952316284 0.10000000149011612,3.299999952316284 C0.10000000149011612,3.299999952316284 -2,-2.0999999046325684 -2,-2.0999999046325684 C-2,-2.0999999046325684 -1.100000023841858,-2.4000000953674316 -1.100000023841858,-2.4000000953674316z"></path>
                                </g>
                            </g>
                            <g transform="matrix(1,0,0,1,280.26898193359375,237.60299682617188)" opacity="1" style="display: block;">
                                <g opacity="1" transform="matrix(1,0,0,1,3.450000047683716,3.6500000953674316)">
                                    <path fill="rgb(0,0,0)" fill-opacity="1" d=" M3.200000047683716,1.2000000476837158 C2.799999952316284,2 2,2.5999999046325684 1.100000023841858,2.9000000953674316 C-0.6000000238418579,3.4000000953674316 -2.200000047683716,2.5999999046325684 -2.700000047683716,0.800000011920929 C-3.200000047683716,-0.8999999761581421 -2.299999952316284,-2.4000000953674316 -0.6000000238418579,-2.9000000953674316 C1.100000023841858,-3.4000000953674316 2.700000047683716,-2.700000047683716 3.0999999046325684,-0.4000000059604645 C3.0999999046325684,-0.4000000059604645 -1.7000000476837158,0.8999999761581421 -1.7000000476837158,0.8999999761581421 C-1.2999999523162842,1.899999976158142 -0.30000001192092896,2.299999952316284 0.800000011920929,2 C1.399999976158142,1.7999999523162842 2.0999999046325684,1.399999976158142 2.4000000953674316,0.800000011920929 C2.4000000953674316,0.800000011920929 3.200000047683716,1.2000000476837158 3.200000047683716,1.2000000476837158z M2,-1 C1.600000023841858,-2.0999999046325684 0.699999988079071,-2.4000000953674316 -0.4000000059604645,-2.0999999046325684 C-1.399999976158142,-1.7999999523162842 -2,-1 -1.899999976158142,0.10000000149011612 C-1.899999976158142,0.10000000149011612 2,-1 2,-1z"></path>
                                </g>
                            </g>
                            <g transform="matrix(1,0,0,1,287.468994140625,235.86599731445312)" opacity="1" style="display: block;">
                                <g opacity="1" transform="matrix(1,0,0,1,3.5999999046325684,3.5999999046325684)">
                                    <path fill="rgb(0,0,0)" fill-opacity="1" d=" M2.549999952316284,2.549999952316284 C2.549999952316284,2.549999952316284 2.3499999046325684,1.5499999523162842 2.3499999046325684,1.5499999523162842 C2.049999952316284,2.450000047683716 1.25,2.950000047683716 0.44999998807907104,3.049999952316284 C-1.149999976158142,3.3499999046325684 -2.6500000953674316,2.450000047683716 -3.049999952316284,0.550000011920929 C-3.3499999046325684,-1.350000023841858 -2.25,-2.6500000953674316 -0.6499999761581421,-2.950000047683716 C0.25,-3.049999952316284 1.149999976158142,-2.8499999046325684 1.649999976158142,-2.1500000953674316 C1.649999976158142,-2.1500000953674316 1.4500000476837158,-3.1500000953674316 1.4500000476837158,-3.1500000953674316 C1.4500000476837158,-3.1500000953674316 2.3499999046325684,-3.3499999046325684 2.3499999046325684,-3.3499999046325684 C2.3499999046325684,-3.3499999046325684 3.3499999046325684,2.3499999046325684 3.3499999046325684,2.3499999046325684 C3.3499999046325684,2.3499999046325684 2.549999952316284,2.549999952316284 2.549999952316284,2.549999952316284z M-0.44999998807907104,-1.9500000476837158 C-1.5499999523162842,-1.75 -2.3499999046325684,-0.75 -2.1500000953674316,0.44999998807907104 C-1.9500000476837158,1.75 -0.8500000238418579,2.3499999046325684 0.25,2.1500000953674316 C3.049999952316284,1.75 2.3499999046325684,-2.450000047683716 -0.44999998807907104,-1.9500000476837158z"></path>
                                </g>
                            </g>
                            <g transform="matrix(1,0,0,1,294.2760009765625,234.1199951171875)" opacity="1" style="display: block;">
                                <g opacity="1" transform="matrix(1,0,0,1,2.549999952316284,4.050000190734863)">
                                    <path fill="rgb(0,0,0)" fill-opacity="1" d=" M-0.10000000149011612,-2.0999999046325684 C-0.10000000149011612,-2.0999999046325684 1.7000000476837158,-2.200000047683716 1.7000000476837158,-2.200000047683716 C1.7000000476837158,-2.200000047683716 1.7999999523162842,-1.399999976158142 1.7999999523162842,-1.399999976158142 C1.7999999523162842,-1.399999976158142 0,-1.2999999523162842 0,-1.2999999523162842 C0,-1.2999999523162842 0.20000000298023224,1.7999999523162842 0.20000000298023224,1.7999999523162842 C0.30000001192092896,2.5 0.5,2.9000000953674316 1.2000000476837158,2.799999952316284 C1.5,2.799999952316284 1.7000000476837158,2.700000047683716 2,2.5 C2,2.5 2.299999952316284,3.299999952316284 2.299999952316284,3.299999952316284 C1.899999976158142,3.5 1.600000023841858,3.5999999046325684 1.2000000476837158,3.700000047683716 C0,3.799999952316284 -0.699999988079071,3.0999999046325684 -0.800000011920929,1.899999976158142 C-0.800000011920929,1.899999976158142 -1,-1.2000000476837158 -1,-1.2000000476837158 C-1,-1.2000000476837158 -2.200000047683716,-1.100000023841858 -2.200000047683716,-1.100000023841858 C-2.200000047683716,-1.100000023841858 -2.299999952316284,-1.899999976158142 -2.299999952316284,-1.899999976158142 C-2.299999952316284,-1.899999976158142 -1.100000023841858,-2 -1.100000023841858,-2 C-1.100000023841858,-2 -1.2000000476837158,-3.5999999046325684 -1.2000000476837158,-3.5999999046325684 C-1.2000000476837158,-3.5999999046325684 -0.20000000298023224,-3.799999952316284 -0.20000000298023224,-3.799999952316284 C-0.20000000298023224,-3.799999952316284 -0.10000000149011612,-2.0999999046325684 -0.10000000149011612,-2.0999999046325684z"></path>
                                </g>
                            </g>
                            <g transform="matrix(1,0,0,1,299.8500061035156,233.1999969482422)" opacity="1" style="display: block;">
                                <g opacity="1" transform="matrix(1,0,0,1,0.8999999761581421,4.449999809265137)">
                                    <path fill="rgb(0,0,0)" fill-opacity="1" d=" M0.6499999761581421,-3.4000000953674316 C0.6499999761581421,-2.5999999046325684 -0.550000011920929,-2.5 -0.6499999761581421,-3.4000000953674316 C-0.6499999761581421,-4.199999809265137 0.550000011920929,-4.199999809265137 0.6499999761581421,-3.4000000953674316z M-0.3499999940395355,4.199999809265137 C-0.3499999940395355,4.199999809265137 0.6499999761581421,4.199999809265137 0.6499999761581421,4.199999809265137 C0.6499999761581421,4.199999809265137 0.550000011920929,-1.600000023841858 0.550000011920929,-1.600000023841858 C0.550000011920929,-1.600000023841858 -0.44999998807907104,-1.600000023841858 -0.44999998807907104,-1.600000023841858 C-0.44999998807907104,-1.600000023841858 -0.3499999940395355,4.199999809265137 -0.3499999940395355,4.199999809265137z"></path>
                                </g>
                            </g>
                            <g transform="matrix(1,0,0,1,302,235.6999969482422)" opacity="1" style="display: block;">
                                <g opacity="1" transform="matrix(1,0,0,1,3.25,3.299999952316284)">
                                    <path fill="rgb(0,0,0)" fill-opacity="1" d=" M-2,-3.049999952316284 C-2,-3.049999952316284 -1.2000000476837158,-0.75 -1.2000000476837158,-0.75 C-1.2000000476837158,-0.75 -0.30000001192092896,1.850000023841858 -0.30000001192092896,1.850000023841858 C-0.30000001192092896,1.850000023841858 0.800000011920929,-0.550000011920929 0.800000011920929,-0.550000011920929 C0.800000011920929,-0.550000011920929 1.899999976158142,-2.75 1.899999976158142,-2.75 C1.899999976158142,-2.75 3,-2.6500000953674316 3,-2.6500000953674316 C3,-2.6500000953674316 0.30000001192092896,3.049999952316284 0.30000001192092896,3.049999952316284 C0.30000001192092896,3.049999952316284 -0.800000011920929,2.950000047683716 -0.800000011920929,2.950000047683716 C-0.800000011920929,2.950000047683716 -3,-2.950000047683716 -3,-2.950000047683716 C-3,-2.950000047683716 -2,-3.049999952316284 -2,-3.049999952316284z"></path>
                                </g>
                            </g>
                            <g transform="matrix(1,0,0,1,308.57598876953125,236.25)" opacity="1" style="display: block;">
                                <g opacity="1" transform="matrix(1,0,0,1,3.549999952316284,3.5)">
                                    <path fill="rgb(0,0,0)" fill-opacity="1" d=" M2.0999999046325684,2.450000047683716 C1.399999976158142,3.049999952316284 0.4000000059604645,3.25 -0.5,3.049999952316284 C-2.299999952316284,2.75 -3.299999952316284,1.4500000476837158 -3,-0.44999998807907104 C-2.700000047683716,-2.1500000953674316 -1.2999999523162842,-3.25 0.4000000059604645,-2.950000047683716 C2.200000047683716,-2.6500000953674316 3.299999952316284,-1.350000023841858 2.700000047683716,0.8500000238418579 C2.700000047683716,0.8500000238418579 -2.200000047683716,0.05000000074505806 -2.200000047683716,0.05000000074505806 C-2.299999952316284,1.149999976158142 -1.5,1.9500000476837158 -0.4000000059604645,2.049999952316284 C0.20000000298023224,2.1500000953674316 1.100000023841858,2.049999952316284 1.5,1.649999976158142 C1.5,1.649999976158142 2.0999999046325684,2.450000047683716 2.0999999046325684,2.450000047683716z M1.899999976158142,0.05000000074505806 C2,-1.0499999523162842 1.399999976158142,-1.75 0.20000000298023224,-1.9500000476837158 C-0.800000011920929,-2.1500000953674316 -1.7999999523162842,-1.649999976158142 -2.0999999046325684,-0.550000011920929 C-2.0999999046325684,-0.550000011920929 1.899999976158142,0.05000000074505806 1.899999976158142,0.05000000074505806z"></path>
                                </g>
                            </g>
                            <g transform="matrix(1,0,0,1,315.8500061035156,239.25)" opacity="1" style="display: block;">
                                <g opacity="1" transform="matrix(1,0,0,1,2.4000000953674316,1.25)">
                                    <path fill="rgb(0,0,0)" fill-opacity="1" d=" M2.1500000953674316,0.10000000149011612 C2.1500000953674316,0.10000000149011612 1.9500000476837158,1 1.9500000476837158,1 C1.9500000476837158,1 -2.1500000953674316,-0.10000000149011612 -2.1500000953674316,-0.10000000149011612 C-2.1500000953674316,-0.10000000149011612 -1.9500000476837158,-1 -1.9500000476837158,-1 C-1.9500000476837158,-1 2.1500000953674316,0.10000000149011612 2.1500000953674316,0.10000000149011612z"></path>
                                </g>
                            </g>
                            <g transform="matrix(1,0,0,1,321,236.4499969482422)" opacity="1" style="display: block;">
                                <g opacity="1" transform="matrix(1,0,0,1,2,4.300000190734863)">
                                    <path fill="rgb(0,0,0)" fill-opacity="1" d=" M-0.8500000238418579,4.050000190734863 C-0.8500000238418579,4.050000190734863 -1.75,3.75 -1.75,3.75 C-1.75,3.75 0.8500000238418579,-4.050000190734863 0.8500000238418579,-4.050000190734863 C0.8500000238418579,-4.050000190734863 1.75,-3.75 1.75,-3.75 C1.75,-3.75 -0.8500000238418579,4.050000190734863 -0.8500000238418579,4.050000190734863z"></path>
                                </g>
                            </g>
                            <g transform="matrix(1,0,0,1,323.75,240.64999389648438)" opacity="1" style="display: block;">
                                <g opacity="1" transform="matrix(1,0,0,1,3.75,3.5999999046325684)">
                                    <path fill="rgb(0,0,0)" fill-opacity="1" d=" M1.5,2.950000047683716 C0.699999988079071,3.3499999046325684 -0.4000000059604645,3.25 -1.2000000476837158,2.950000047683716 C-2.9000000953674316,2.25 -3.5,0.6499999761581421 -2.799999952316284,-1.0499999523162842 C-2.0999999046325684,-2.6500000953674316 -0.5,-3.3499999046325684 1.100000023841858,-2.6500000953674316 C2.700000047683716,-1.9500000476837158 3.5,-0.44999998807907104 2.4000000953674316,1.649999976158142 C2.4000000953674316,1.649999976158142 -2.0999999046325684,-0.25 -2.0999999046325684,-0.25 C-2.4000000953674316,0.75 -1.899999976158142,1.75 -0.800000011920929,2.1500000953674316 C-0.20000000298023224,2.450000047683716 0.6000000238418579,2.450000047683716 1.2000000476837158,2.25 C1.2000000476837158,2.25 1.5,2.950000047683716 1.5,2.950000047683716z M1.899999976158142,0.550000011920929 C2.299999952316284,-0.550000011920929 1.7999999523162842,-1.350000023841858 0.800000011920929,-1.850000023841858 C-0.10000000149011612,-2.25 -1.2000000476837158,-2.049999952316284 -1.7999999523162842,-1.0499999523162842 C-1.7999999523162842,-1.0499999523162842 1.899999976158142,0.550000011920929 1.899999976158142,0.550000011920929z"></path>
                                </g>
                            </g>
                            <g transform="matrix(1,0,0,1,329.79998779296875,243.6999969482422)" opacity="1" style="display: block;">
                                <g opacity="1" transform="matrix(1,0,0,1,4.699999809265137,4.050000190734863)">
                                    <path fill="rgb(0,0,0)" fill-opacity="1" d=" M4.449999809265137,-3.299999952316284 C4.449999809265137,-3.299999952316284 0.3499999940395355,3.799999952316284 0.3499999940395355,3.799999952316284 C0.3499999940395355,3.799999952316284 -0.44999998807907104,3.4000000953674316 -0.44999998807907104,3.4000000953674316 C-0.44999998807907104,3.4000000953674316 0.05000000074505806,2.5 0.05000000074505806,2.5 C-0.75,3 -1.649999976158142,2.9000000953674316 -2.450000047683716,2.4000000953674316 C-3.8499999046325684,1.600000023841858 -4.449999809265137,0 -3.549999952316284,-1.7000000476837158 C-2.549999952316284,-3.4000000953674316 -0.949999988079071,-3.700000047683716 0.44999998807907104,-2.9000000953674316 C1.149999976158142,-2.5 1.75,-1.7000000476837158 1.75,-0.800000011920929 C1.75,-0.800000011920929 3.450000047683716,-3.799999952316284 3.450000047683716,-3.799999952316284 C3.450000047683716,-3.799999952316284 4.449999809265137,-3.299999952316284 4.449999809265137,-3.299999952316284z M0.15000000596046448,-2 C-0.8500000238418579,-2.5999999046325684 -1.9500000476837158,-2.4000000953674316 -2.6500000953674316,-1.2000000476837158 C-3.3499999046325684,0 -2.8499999046325684,1.100000023841858 -1.9500000476837158,1.600000023841858 C-0.949999988079071,2.200000047683716 0.25,1.899999976158142 0.8500000238418579,0.800000011920929 C1.5499999523162842,-0.30000001192092896 1.149999976158142,-1.5 0.15000000596046448,-2z"></path>
                                </g>
                            </g>
                        </g>
                    </g>
                </g>
                <g clip-path="url(#__lottie_element_20311)" transform="matrix(1,0,0,1,0,0)" opacity="1" style="display: block;">
                    <g clip-path="url(#__lottie_element_20410)" transform="matrix(0.8100000023841858,0,0,0.8100000023841858,57,57)" opacity="1" style="display: block;">
                        <g clip-path="url(#__lottie_element_20414)" transform="matrix(0.23999999463558197,0,0,0.23999999463558197,69.60000610351562,170.40000915527344)" opacity="1" style="display: block;">
                            <g transform="matrix(1,0,0,1,929.0009765625,576.9949951171875)" opacity="1" style="display: block;">
                                <g opacity="1" transform="matrix(1,0,0,1,115.70700073242188,118.22100067138672)">
                                    <path stroke-linecap="butt" stroke-linejoin="miter" fill-opacity="0" stroke-miterlimit="10" stroke="rgb(0,0,0)" stroke-opacity="1" stroke-width="3" d=" M-115.20700073242188,-117.72100067138672 C-115.20700073242188,-117.72100067138672 115.20700073242188,117.72100067138672 115.20700073242188,117.72100067138672"></path>
                                </g>
                            </g>
                            <g transform="matrix(1,0,0,1,758.58203125,267.572998046875)" opacity="1" style="display: block;">
                                <g opacity="1" transform="matrix(0.9978600144386292,0,0,0.9978600144386292,116.70999908447266,117.21099853515625)">
                                    <path stroke-linecap="butt" stroke-linejoin="miter" fill-opacity="0" stroke-miterlimit="10" stroke="rgb(0,0,0)" stroke-opacity="1" stroke-width="3" d=" M-115.20700073242188,-116.927001953125 C-115.20700073242188,-116.927001953125 116.20999908447266,114.48999786376953 116.20999908447266,114.48999786376953"></path>
                                </g>
                            </g>
                            <g transform="matrix(1,0,0,1,756.3469848632812,185.47198486328125)" opacity="1" style="display: block;">
                                <g opacity="1" transform="matrix(1,0,0,1,288.1759948730469,309.25201416015625)">
                                    <path stroke-linecap="butt" stroke-linejoin="miter" fill-opacity="0" stroke-miterlimit="10" stroke="rgb(0,0,0)" stroke-opacity="1" stroke-width="3" d=" M-285.6759948730469,-226.82400512695312 C-209.13499450683594,-282.9849853515625 -109.50800323486328,-306.7510070800781 -9.736000061035156,-283.7720031738281 C172.17300415039062,-241.875 285.6759948730469,-60.44499969482422 243.7790069580078,121.46499633789062 C226.343994140625,197.16200256347656 184.7480010986328,261.0140075683594 129.01100158691406,306.7510070800781"></path>
                                </g>
                            </g>
                            <g transform="matrix(1,0,0,1,615.510986328125,277.9219970703125)" opacity="1" style="display: block;">
                                <g opacity="1" transform="matrix(1,0,0,1,273.9339904785156,302.0419921875)">
                                    <path stroke-linecap="butt" stroke-linejoin="miter" fill-opacity="0" stroke-miterlimit="10" stroke="rgb(0,0,0)" stroke-opacity="1" stroke-width="3" d=" M-146.52499389648438,-299.5409851074219 C-219.4709930419922,-238.78399658203125 -266.53900146484375,-147.8159942626953 -268.27301025390625,-45.448001861572266 C-271.4330139160156,141.197998046875 -122.69000244140625,295.0660095214844 63.95500183105469,298.22698974609375 C141.6219940185547,299.5419921875 213.61599731445312,274.5530090332031 271.4339904785156,231.47500610351562"></path>
                                </g>
                            </g>
                        </g>
                    </g>
                </g>
            </g>
        </g>
    </g>
</svg>