<svg id="Layer_1" data-name="Layer 1" xmlns="http://www.w3.org/2000/svg" width="231.6" height="196.1" viewBox="0 0 231.6 196.1"><defs><style>.cls-1,.cls-3{fill:none;}.cls-1{stroke:#fff;stroke-miterlimit:10;}.cls-2{fill:#fff;}</style></defs><title>logo_nerd-01</title><circle class="cls-1" cx="115.8" cy="98.05" r="71.5"/><path class="cls-2" d="M75.4,88.85l10.2,12.6V88.85h1.1v15.2h-.5L76.1,91.55v12.5H74.9V88.85Z"/><path class="cls-2" d="M99.7,95.85h8.9V97H99.7v6h9.6v1.1H98.5V88.85H109V90H99.7Z"/><path class="cls-2" d="M133.5,104.05H132l-5.2-5.7h-4.1v5.7h-1.2V88.85h6.7a4.7,4.7,0,0,1,5,4.7c0,2.5-1.6,4.6-4.9,4.6Zm-10.9-6.9H128c2.6,0,3.8-1.5,3.8-3.6a3.49,3.49,0,0,0-3.7-3.6h-5.5Z"/><path class="cls-2" d="M157.9,96.25a7.3,7.3,0,0,1-7.7,7.8h-5.1V88.85h5.1A7.33,7.33,0,0,1,157.9,96.25ZM146.2,90v12.9h4a6.45,6.45,0,1,0,0-12.9Z"/><path class="cls-2" d="M115.6,165.45A67.25,67.25,0,0,1,72,47l.3.4a66.7,66.7,0,0,0,83.6,103.9l.2-.2.3.4-.2.2A65.56,65.56,0,0,1,115.6,165.45Z"/><path class="cls-2" d="M159.7,149.05l-.3-.4A66.68,66.68,0,0,0,76.8,44.05l-.3-.4a66.68,66.68,0,0,1,39.7-13,67.13,67.13,0,0,1,43.5,118.4Z"/><rect class="cls-2" x="132.2" y="93.61" width="0.5" height="67.9" transform="translate(-51.4 131.02) rotate(-45)"/><rect class="cls-2" x="98.83" y="34.32" width="0.5" height="64.7" transform="translate(-18.12 89.6) rotate(-45.01)"/><path class="cls-3" d="M85.1,48.75a63.66,63.66,0,0,1,43.6-6.3c26.6,5.8,39.2,27.1,41.2,30.6"/><path class="cls-2" d="M89.9,45.55a2.7,2.7,0,0,1-1.6,1.7,2.8,2.8,0,0,1-4-1.4,2.86,2.86,0,0,1,1.4-4,3,3,0,0,1,2.3-.1l-.3.8a2.22,2.22,0,0,0-1.6.1,2.1,2.1,0,0,0-1,2.8,2,2,0,0,0,2.8,1,1.89,1.89,0,0,0,1.1-1.2l.9.3Z"/><path class="cls-2" d="M90,40.15l.4.8a1.85,1.85,0,0,1,1.3-1.5,2.29,2.29,0,0,1,1.4-.1l-.1.9a1.42,1.42,0,0,0-1.1.1,1.6,1.6,0,0,0-1,2.2l1.2,3-.9.3-2.1-5.4.9-.3Z"/><path class="cls-2" d="M100.4,42a3.59,3.59,0,0,1-2.1,1.7,2.91,2.91,0,0,1-3.8-2.1,2.88,2.88,0,0,1,2.1-3.7c1.7-.5,3.3.2,3.7,2.5l-4.8,1.3a2,2,0,0,0,2.5,1.1,2.76,2.76,0,0,0,1.6-1.2l.8.4Zm-1.2-2.2a1.78,1.78,0,0,0-2.4-1.1,2,2,0,0,0-1.5,2.2l3.9-1.1Z"/><path class="cls-2" d="M106.8,41.65l-.2-1a2.26,2.26,0,0,1-1.9,1.5,2.94,2.94,0,0,1-3.5-2.5,2.89,2.89,0,0,1,2.4-3.5,2.39,2.39,0,0,1,2.3.8l-.2-1,.9-.2,1,5.7-.8.2Zm-3-4.5a2.07,2.07,0,0,0-1.7,2.4,2,2,0,0,0,2.4,1.7,2.08,2.08,0,1,0-.7-4.1Z"/><path class="cls-2" d="M110.4,35.45l1.8-.1.1.8-1.8.1.2,3.1c.1.7.3,1.1,1,1a1.33,1.33,0,0,0,.8-.3l.3.8a4.87,4.87,0,0,1-1.1.4,1.74,1.74,0,0,1-2-1.8l-.2-3.1-1.2.1-.1-.8,1.2-.1-.1-1.6,1-.2Z"/><path class="cls-2" d="M114.8,33.45a.65.65,0,0,1-1.3,0C113.5,32.65,114.7,32.65,114.8,33.45Zm-1,7.6h1l-.1-5.8h-1Z"/><path class="cls-2" d="M117.2,35.25l.8,2.3.9,2.6,1.1-2.4,1.1-2.2,1.1.1-2.7,5.7-1.1-.1-2.2-5.9Z"/><path class="cls-2" d="M127.8,41.25a3,3,0,0,1-2.6.6,2.83,2.83,0,0,1-2.5-3.5,2.89,2.89,0,0,1,3.4-2.5c1.8.3,2.9,1.6,2.3,3.8l-4.9-.8a1.84,1.84,0,0,0,1.8,2,2.47,2.47,0,0,0,1.9-.4l.6.8Zm-.2-2.4a1.75,1.75,0,0,0-1.7-2,1.91,1.91,0,0,0-2.3,1.4l4,.6Z"/><path class="cls-2" d="M134,39.85l-.2.9-4.1-1.1.2-.9Z"/><path class="cls-2" d="M135.5,44.35l-.9-.3,2.6-7.8.9.3Z"/><path class="cls-2" d="M142.3,46.05a3.6,3.6,0,0,1-2.7,0,3,3,0,0,1,2.3-5.6c1.6.7,2.4,2.2,1.3,4.3l-4.5-1.9a1.92,1.92,0,0,0,1.3,2.4,2.77,2.77,0,0,0,2,.1l.3.7Zm.4-2.4a1.81,1.81,0,0,0-1.1-2.4,2,2,0,0,0-2.6.8l3.7,1.6Z"/><path class="cls-2" d="M152.3,43.25l-4.1,7.1-.8-.4.5-.9a2.28,2.28,0,0,1-2.5-.1,2.9,2.9,0,0,1-1.1-4.1,2.78,2.78,0,0,1,4-1.2,2.53,2.53,0,0,1,1.3,2.1l1.7-3,1,.5Zm-4.3,1.3a1.9,1.9,0,0,0-2.8.8,2,2,0,1,0,3.5,2,1.88,1.88,0,0,0-.7-2.8Z"/><path class="cls-3" d="M56.1,119.25c1.5,3.8,11.7,28.3,39.1,37.9,32.4,11.4,59.6-8.5,61.7-10.1"/><path class="cls-2" d="M63.8,122.25l.5.8-.9.6a2.61,2.61,0,0,1,2.2,1.3,3,3,0,0,1-5.2,3,2.48,2.48,0,0,1-.1-2.5l-3.3,1.9-.5-.8Zm0,5.9a2,2,0,0,0,.8-2.8,2,2,0,0,0-2.8-.7,2,2,0,0,0-.8,2.8A2,2,0,0,0,63.8,128.15Z"/><path class="cls-2" d="M68.2,129.25l-.7.6a1.83,1.83,0,0,1,1.8.9,2.3,2.3,0,0,1,.4,1.4l-.9.1a1.69,1.69,0,0,0-.3-1,1.71,1.71,0,0,0-2.4-.4l-2.6,1.8-.6-.8,4.7-3.4.6.8Z"/><path class="cls-2" d="M72.2,134.35a3,3,0,0,1-.3,4.3,3,3,0,1,1-3.9-4.5A2.75,2.75,0,0,1,72.2,134.35Zm-.6.6a2.13,2.13,0,0,0-3.3,2.7,2,2,0,0,0,2.9.2A1.93,1.93,0,0,0,71.6,135Z"/><path class="cls-2" d="M80.8,139.75l-5.6,6-.7-.6.7-.8a2.33,2.33,0,0,1-2.4-.6,3,3,0,0,1,4.1-4.4,2.56,2.56,0,0,1,.8,2.3l2.4-2.5.7.6Zm-4.4.3a1.91,1.91,0,0,0-2.9.2,2,2,0,1,0,3,2.7,2.05,2.05,0,0,0-.1-2.9Z"/><path class="cls-2" d="M80.8,150l.5-.8a2.18,2.18,0,0,1-2.2-.4,2.49,2.49,0,0,1-.5-3.7l1.9-2.6.8.6-1.9,2.6a1.62,1.62,0,0,0,.4,2.5,1.83,1.83,0,0,0,2.6-.5l1.8-2.5.8.6-3.4,4.7-.8-.5Z"/><path class="cls-2" d="M88,153.35a3.06,3.06,0,0,1-2.3-.3,2.93,2.93,0,0,1-1.2-4.1,2.75,2.75,0,0,1,4.1-1.1,2.83,2.83,0,0,1,1.4,1.8l-.8.3a2,2,0,0,0-1-1.2,2,2,0,0,0-2.8.8,1.89,1.89,0,0,0,.8,2.8,1.84,1.84,0,0,0,1.6.2l.2.8Z"/><path class="cls-2" d="M93.1,150.15l1.6.7-.3.8-1.7-.7-1.2,2.7a.92.92,0,0,0,.4,1.4,2,2,0,0,0,.8.1l-.1.8a3.59,3.59,0,0,1-1.1-.2,1.77,1.77,0,0,1-.9-2.6l1.2-2.8-1.1-.5.3-.8,1.1.5.6-1.5.9.3Z"/><path class="cls-2" d="M95.8,151.25l.9.3-2,5.5-.9-.3Zm.5-1.7a.63.63,0,1,0,1.2.4A.63.63,0,1,0,96.3,149.55Z"/><path class="cls-2" d="M100.9,152.75a2.88,2.88,0,0,1,2.1,3.7,3,3,0,0,1-3.7,2.1,2.88,2.88,0,0,1-2.1-3.7A2.91,2.91,0,0,1,100.9,152.75Zm-.3.9a2.13,2.13,0,0,0-2.6,1.5,2.11,2.11,0,0,0,1.4,2.6,2,2,0,0,0,2.5-1.5A1.8,1.8,0,0,0,100.6,153.65Z"/><path class="cls-2" d="M105,154l.9.1-.1.9a2.38,2.38,0,0,1,2.1-.7,2.35,2.35,0,0,1,2.1,3l-.5,3.2-1-.1.5-3.2a1.58,1.58,0,0,0-1.5-2,1.81,1.81,0,0,0-2,1.6l-.4,3.1-.9-.1.8-5.8Z"/><path class="cls-2" d="M118.7,156.15a2.35,2.35,0,0,0-1.6-.5c-.8,0-1.4.3-1.4.9s.7.8,1.5.8c1.1.1,2.5.3,2.5,1.7,0,1.2-1.1,1.8-2.4,1.8a3.19,3.19,0,0,1-2.6-1l.5-.7a2.46,2.46,0,0,0,2.1.8c.6,0,1.4-.2,1.4-.9s-.7-.8-1.6-.9c-1.1-.1-2.3-.4-2.4-1.6s1.2-1.7,2.3-1.8a3.23,3.23,0,0,1,2.2.7l-.5.7Z"/><path class="cls-2" d="M122.4,154.45l1.8-.2.1.8-1.8.2.3,3c.1.7.3,1.1,1,1a1.33,1.33,0,0,0,.8-.3l.4.8a2.46,2.46,0,0,1-1.1.4c-1.2.2-1.9-.5-2-1.8l-.3-3-1.2.1-.1-.8,1.2-.1-.2-1.6.9-.2Z"/><path class="cls-2" d="M130.9,158.85l-.2-.9a2.54,2.54,0,0,1-1.8,1.4,2.45,2.45,0,0,1-3-2.1l-.7-3.1.9-.2.7,3.1a1.64,1.64,0,0,0,2.1,1.4,1.84,1.84,0,0,0,1.4-2.2l-.6-3,.9-.2,1.2,5.7-.9.1Z"/><path class="cls-2" d="M136.9,148.45l2.6,7.8-.9.3-.4-1a2.57,2.57,0,0,1-1.7,1.8,2.77,2.77,0,0,1-3.7-1.9,2.82,2.82,0,0,1,1.8-3.8,2.32,2.32,0,0,1,2.4.4l-1.1-3.3,1-.3Zm-1.9,4.1a1.94,1.94,0,0,0-1.3,2.6,2,2,0,1,0,3.9-1.2,1.93,1.93,0,0,0-2.6-1.4Z"/><path class="cls-2" d="M139.6,148.05c.3.8-.9,1.3-1.2.5S139.3,147.25,139.6,148.05Zm1.8,7.5.9-.4-2.2-5.4-.9.4Z"/><path class="cls-2" d="M144,147.85a3,3,0,1,1-1.4,4A3,3,0,0,1,144,147.85Zm.4.8a1.94,1.94,0,0,0-.9,2.8,2,2,0,0,0,2.8,1,1.94,1.94,0,0,0,.9-2.8A2,2,0,0,0,144.4,148.65Z"/></svg>